<svg width="153" height="30" viewBox="0 0 153 30" fill="none" xmlns="http://www.w3.org/2000/svg">
<path d="M77.3483 8.89408V11.8017H81.29V13.6459H77.3483V16.7196H81.7932V18.6137H75V7H81.7932V8.89408H77.3483Z" fill="white"/>
<path d="M87.8018 16.4704L90.1501 9.40914H92.6493L89.2108 18.6137H86.3593L82.9376 9.40914H85.4536L87.8018 16.4704Z" fill="white"/>
<path d="M102.607 13.812C102.607 14.1443 102.584 14.4434 102.539 14.7092H95.7462C95.8021 15.3738 96.037 15.8944 96.4507 16.271C96.8645 16.6476 97.3732 16.8359 97.9771 16.8359C98.8493 16.8359 99.4699 16.4649 99.8389 15.7227H102.372C102.103 16.6089 101.589 17.3399 100.829 17.9159C100.068 18.4808 99.1344 18.7632 98.0274 18.7632C97.1328 18.7632 96.3277 18.5694 95.612 18.1817C94.9076 17.783 94.354 17.2236 93.9515 16.5036C93.5601 15.7837 93.3644 14.9529 93.3644 14.0114C93.3644 13.0588 93.5601 12.2226 93.9515 11.5026C94.3429 10.7826 94.8908 10.2288 95.5953 9.84112C96.2998 9.45344 97.1105 9.25961 98.0274 9.25961C98.9108 9.25961 99.6991 9.44791 100.392 9.82451C101.097 10.2011 101.639 10.7383 102.019 11.4361C102.411 12.1229 102.607 12.9148 102.607 13.812ZM100.174 13.1475C100.163 12.5493 99.9452 12.073 99.5202 11.7186C99.0953 11.3531 98.5753 11.1703 97.9603 11.1703C97.3788 11.1703 96.8868 11.3475 96.4843 11.702C96.0929 12.0453 95.8525 12.5272 95.763 13.1475H100.174Z" fill="white"/>
<path d="M109.47 9.27622C110.577 9.27622 111.472 9.62513 112.154 10.3229C112.836 11.0097 113.177 11.9733 113.177 13.2139V18.6137H110.829V13.5296C110.829 12.7985 110.644 12.2392 110.275 11.8515C109.906 11.4528 109.403 11.2534 108.765 11.2534C108.117 11.2534 107.603 11.4528 107.222 11.8515C106.853 12.2392 106.669 12.7985 106.669 13.5296V18.6137H104.321V9.40914H106.669V10.5556C106.982 10.1568 107.379 9.84666 107.86 9.62513C108.352 9.39252 108.888 9.27622 109.47 9.27622Z" fill="white"/>
<path d="M118.144 11.3198V15.7726C118.144 16.0827 118.217 16.3098 118.362 16.4538C118.519 16.5867 118.776 16.6532 119.134 16.6532H120.224V18.6137H118.748C116.769 18.6137 115.779 17.6611 115.779 15.756V11.3198H114.672V9.40914H115.779V7.13292H118.144V9.40914H120.224V11.3198H118.144Z" fill="white"/>
<path d="M124.228 7.01662V14.1942C124.228 14.9806 124.434 15.5843 124.848 16.0052C125.262 16.415 125.843 16.6199 126.593 16.6199C127.353 16.6199 127.94 16.415 128.354 16.0052C128.768 15.5843 128.974 14.9806 128.974 14.1942V7.01662H131.339V14.1776C131.339 15.1634 131.121 15.9997 130.685 16.6864C130.26 17.3621 129.685 17.8716 128.958 18.215C128.242 18.5583 127.442 18.73 126.559 18.73C125.687 18.73 124.893 18.5583 124.177 18.215C123.473 17.8716 122.914 17.3621 122.5 16.6864C122.086 15.9997 121.879 15.1634 121.879 14.1776V7.01662H124.228Z" fill="white"/>
<path d="M135.957 10.7383C136.259 10.3174 136.672 9.9685 137.198 9.69159C137.735 9.4036 138.344 9.25961 139.026 9.25961C139.82 9.25961 140.536 9.45344 141.173 9.84112C141.822 10.2288 142.33 10.7826 142.699 11.5026C143.08 12.2115 143.27 13.0367 143.27 13.9782C143.27 14.9197 143.08 15.756 142.699 16.487C142.33 17.207 141.822 17.7664 141.173 18.1651C140.536 18.5639 139.82 18.7632 139.026 18.7632C138.344 18.7632 137.74 18.6248 137.215 18.3479C136.7 18.071 136.281 17.722 135.957 17.3011V23H133.608V9.40914H135.957V10.7383ZM140.871 13.9782C140.871 13.4244 140.754 12.9481 140.519 12.5493C140.295 12.1395 139.993 11.8294 139.613 11.6189C139.244 11.4084 138.842 11.3032 138.406 11.3032C137.981 11.3032 137.578 11.414 137.198 11.6355C136.829 11.846 136.527 12.1561 136.292 12.5659C136.068 12.9758 135.957 13.4576 135.957 14.0114C135.957 14.5652 136.068 15.0471 136.292 15.4569C136.527 15.8667 136.829 16.1824 137.198 16.4039C137.578 16.6144 137.981 16.7196 138.406 16.7196C138.842 16.7196 139.244 16.6089 139.613 16.3873C139.993 16.1658 140.295 15.8501 140.519 15.4403C140.754 15.0305 140.871 14.5431 140.871 13.9782Z" fill="white"/>
<ellipse cx="149.323" cy="15.3072" rx="1.67733" ry="1.66147" fill="white"/>
<g clip-path="url(#clip0_455_4121)">
<path d="M14.9542 0C12.4939 0 10.1344 0.96804 8.39467 2.69117L2.71704 8.31472C0.977348 10.0378 0 12.3749 0 14.8118C0 19.8863 4.15327 24 9.27659 24C11.7369 24 14.0964 23.0319 15.8361 21.3088L19.7633 17.419C19.7633 17.4189 19.7634 17.419 19.7633 17.419L31.206 6.08528C32.0369 5.26233 33.1638 4.8 34.3388 4.8C36.306 4.8 37.9738 6.06993 38.552 7.82726L42.1633 4.25037C40.5159 1.69467 37.6272 0 34.3388 0C31.8785 0 29.519 0.96804 27.7793 2.69117L12.4094 17.9147C11.5785 18.7377 10.4516 19.2 9.27659 19.2C6.82972 19.2 4.84615 17.2354 4.84615 14.8118C4.84615 13.6479 5.31293 12.5318 6.14379 11.7088L11.8214 6.08528C12.6523 5.26233 13.7792 4.8 14.9542 4.8C16.9215 4.8 18.5892 6.06998 19.1674 7.82737L22.7788 4.25046C21.1313 1.69472 18.2426 0 14.9542 0Z" fill="#E14817"/>
<path d="M31.7939 17.9147C30.963 18.7377 29.8361 19.2 28.6611 19.2C26.6941 19.2 25.0265 17.9304 24.4481 16.1734L20.8369 19.7502C22.4844 22.3055 25.373 24 28.6611 24C31.1214 24 33.4809 23.0319 35.2206 21.3088L50.5905 6.08528C51.4214 5.26233 52.5483 4.8 53.7233 4.8C56.1702 4.8 58.1538 6.76467 58.1538 9.18824C58.1538 10.3521 57.687 11.4682 56.8561 12.2912L51.1785 17.9147C50.3476 18.7377 49.2208 19.2 48.0457 19.2C46.0786 19.2 44.4109 17.9302 43.8326 16.173L40.2214 19.7498C41.8688 22.3054 44.7574 24 48.0457 24C50.506 24 52.8655 23.0319 54.6052 21.3088L60.2828 15.6853C62.0225 13.9622 62.9999 11.6251 62.9999 9.18824C62.9999 4.11371 58.8467 0 53.7233 0C51.263 0 48.9035 0.96804 47.1638 2.69117L31.7939 17.9147Z" fill="#E14817"/>
</g>
<defs>
<clipPath id="clip0_455_4121">
<rect width="63" height="24" fill="white"/>
</clipPath>
</defs>
</svg>
